<svg version="1.0" xmlns="http://www.w3.org/2000/svg" viewBox="0 0 340 250" color-interpolation-filters="sRGB" class="el-tooltip" style="margin:auto"><rect width="100" height="100" fill="none" class="background"/><g fill="#fff" class="bordersvg b-d1"><path stroke="#fff" stroke-width="3" fill="none" d="M170 100.16v-20h73.6v89.68H170v-20"/><path data-gra="graph-name-bg" class="i-icon-bg" fill="none" d="M96.4 100.16h147.2v49.68H96.4z"/><path d="M134.66 111.26H113.6v10.2h15.66l1.8 7.2H113.6v17.4h-7.2v-42h28.26v7.2Zm9.9 34.8h-7.2v-30h7.2v30Zm-7.2-34.8v-7.2h7.2v7.2h-7.2Zm18.6 34.8h-7.2v-42h7.2v42Zm36.06-30.84q2.52 0 4.41.96 1.89.96 3.09 2.64 1.2 1.68 1.8 3.9.6 2.22.6 4.8v18.54h-7.2v-18.54q0-2.1-1.5-3.6-1.44-1.5-3.6-1.5t-3.6 1.5q-1.5 1.5-1.5 3.6v18.54h-7.2v-18.54q0-2.1-1.5-3.6-.72-.78-1.65-1.14-.93-.36-1.95-.36-2.22 0-3.66 1.5-1.5 1.5-1.5 3.6v18.54h-7.2v-30h7.2v2.64q1.74-1.5 3.66-2.49 1.92-.99 3.9-.99 2.7 0 4.44 1.08 1.74 1.08 3.12 3 1.62-1.74 4.2-2.91 2.58-1.17 5.64-1.17Zm37.56 8.16q1.92 1.92 2.97 4.44 1.05 2.52 1.05 5.28 0 2.76-1.05 5.25t-2.97 4.47q-1.92 1.92-4.44 2.97-2.52 1.05-5.28 1.05-2.76 0-5.25-1.05t-4.47-2.97q-1.92-1.98-2.97-4.47-1.05-2.49-1.05-5.25t1.05-5.28q1.05-2.52 2.97-4.44.24-.24.45-.42.21-.18.45-.42-1.38-1.56-2.13-3.51-.75-1.95-.75-4.17 0-2.4.93-4.56.93-2.16 2.49-3.72t3.69-2.49q2.13-.93 4.59-.93 2.4 0 4.56.93 2.16.93 3.72 2.49t2.49 3.72q.93 2.16.93 4.56 0 2.22-.75 4.17-.75 1.95-2.13 3.51.24.24.45.42.21.18.45.42Zm-14.22-8.52q0 1.86 1.32 3.18t3.18 1.32q1.86 0 3.18-1.32t1.32-3.18q0-1.86-1.32-3.18t-3.18-1.32q-1.86 0-3.18 1.32t-1.32 3.18Zm4.5 24.78q1.32 0 2.52-.51t2.1-1.41q.9-.9 1.41-2.07.51-1.17.51-2.55 0-1.32-.51-2.52t-1.41-2.1q-.9-.9-2.1-1.41-1.2-.51-2.52-.51-1.38 0-2.55.51t-2.07 1.41q-.9.9-1.41 2.1-.51 1.2-.51 2.52 0 1.38.51 2.55t1.41 2.07q.9.9 2.07 1.41 1.17.51 2.55.51Z" data-gra="path-name" class="tp-name"/></g></svg>